<?xml version="1.0" standalone="no"?>
<!DOCTYPE svg PUBLIC "-//W3C//DTD SVG 20010904//EN" "http://www.w3.org/TR/2001/REC-SVG-20010904/DTD/svg10.dtd">
<!-- Created using Krita: https://krita.org -->
<svg xmlns="http://www.w3.org/2000/svg" 
    xmlns:xlink="http://www.w3.org/1999/xlink"
    xmlns:krita="http://krita.org/namespaces/svg/krita"
    xmlns:sodipodi="http://sodipodi.sourceforge.net/DTD/sodipodi-0.dtd"
    width="512pt"
    height="512pt"
    viewBox="0 0 512 512">
<defs/>
<g id="group0" transform="matrix(1.04339853993338 0 0 1.04339853993338 68.1882628155587 30.6259153899454)" fill="none">
  <path id="shape0" transform="matrix(24 0 0 24 23.9999628261543 3.5527136788005e-15)" fill="none" stroke="#ffffff" stroke-width="2" stroke-linecap="round" stroke-linejoin="round" d="M4.29183 18L4.29183 15.4407L4.3255 13.6219C4.36595 13.0561 4.58639 12.5228 4.94907 12.11C4.95438 12.1039 4.95972 12.0979 4.9651 12.0919C4.9791 12.0763 4.96988 12.0511 4.94907 12.0485L4.94907 12.0485C2.52554 11.746 0.000501549 10.7227 0.000501549 6.26749C-0.0152985 5.17021 0.342702 4.10648 1.00437 3.27215C1.02752 3.24297 1.05103 3.21406 1.07492 3.18545L1.07492 3.18545C1.10601 3.1482 1.11618 3.09772 1.10194 3.05134C1.10107 3.04853 1.10021 3.04571 1.09935 3.04289C1.0832 2.9899 1.06804 2.93666 1.05388 2.88321C0.810652 1.96474 0.862952 0.98363 1.20527 0.0981804C1.20779 0.0916404 1.21034 0.0851104 1.2129 0.0785804C1.22568 0.0459904 1.25251 0.0210804 1.28698 0.0149304L1.28698 0.0149304C1.50189 -0.0233896 2.37036 -0.0746596 4.03298 1.07346C4.08473 1.10919 4.13724 1.14609 4.19053 1.18418L4.19053 1.18418C4.22901 1.21168 4.27794 1.22011 4.32344 1.20716C4.32487 1.20675 4.32631 1.20634 4.32774 1.20593C4.41699 1.18056 4.50648 1.15649 4.59617 1.1337C6.1766 0.73226 7.8234 0.73226 9.4038 1.1337C9.4889 1.1553 9.5737 1.17807 9.6584 1.20199C9.6602 1.20252 9.6621 1.20304 9.6639 1.20356C9.7174 1.21872 9.7749 1.20882 9.8202 1.17653L9.8202 1.17653C9.8698 1.14114 9.9187 1.10679 9.967 1.07346C11.6257 -0.0722396 12.4894 -0.0235996 12.7053 0.0146904L12.7053 0.0146904C12.7404 0.0209204 12.7678 0.0462804 12.781 0.0794604C12.7827 0.0837304 12.7843 0.0879904 12.786 0.0922604C13.1341 0.97811 13.1894 1.96214 12.946 2.88321C12.9315 2.93811 12.9159 2.9928 12.8993 3.04723L12.8993 3.04723C12.8843 3.09618 12.8951 3.14942 12.9278 3.18875C12.9289 3.18998 12.9299 3.19121 12.9309 3.19245C12.9528 3.21877 12.9744 3.24534 12.9956 3.27215C13.6573 4.10648 14.0153 5.17021 13.9995 6.26749C13.9995 10.747 11.4565 11.7435 9.0214 12.015L9.0214 12.015C9.0073 12.0165 9.001 12.0334 9.0105 12.0439C9.0141 12.0479 9.0178 12.0519 9.0214 12.0559C9.2671 12.3296 9.4577 12.6544 9.5811 13.0103C9.7101 13.3824 9.7626 13.7797 9.7351 14.1754L9.7351 18" sodipodi:nodetypes="cccccccccccccccccccccccccccccccccccccccccccccccc"/>
  <path id="shape1" transform="matrix(24 0 0 24 7.105427357601e-15 336.00000947577)" fill="none" stroke="#ffffff" stroke-width="2" stroke-linecap="round" stroke-linejoin="round" d="M0 0C0.36915 0.0523 0.72159 0.1883 1.03065 0.3975C1.3397 0.6068 1.59726 0.8838 1.7838 1.2078C1.94231 1.4962 2.15601 1.7504 2.41264 1.9557C2.66927 2.161 2.96379 2.3135 3.27929 2.4043C3.59478 2.4952 3.92504 2.5226 4.25112 2.485C4.5772 2.4475 4.89268 2.3457 5.17946 2.1855" sodipodi:nodetypes="ccccccc"/>
 </g>
</svg>
